<?xml version="1.0" standalone="no"?><!-- Generator: Gravit.io --><svg xmlns="http://www.w3.org/2000/svg" xmlns:xlink="http://www.w3.org/1999/xlink" style="isolation:isolate" viewBox="0 0 1024 1024" width="1024" height="1024"><defs><clipPath id="_clipPath_DgkJ3Lc8YEVWphFn4sVh4Vbwgabq3pZP"><rect width="1024" height="1024"/></clipPath></defs><g clip-path="url(#_clipPath_DgkJ3Lc8YEVWphFn4sVh4Vbwgabq3pZP)"><g style="isolation:isolate" id="Design"/><g style="opacity:0.5;" id="Grid"><path d=" M 1024.5 705.247 C 1024.5 717.42 1024.5 729.593 1024.429 741.784 C 1024.357 753.975 1024.25 762.285 1023.965 772.535 C 1023.679 782.786 1022.019 817.4 1018.004 839.471 C 1013.988 861.542 1007.296 882.766 996.784 903.143 C 986.273 923.521 973.031 941.463 956.969 957.342 C 940.907 973.22 922.364 986.54 902.126 996.72 C 881.888 1006.9 860.437 1013.674 837.754 1017.697 C 815.071 1021.719 792.62 1022.99 770.026 1023.589 C 747.433 1024.189 714.274 1024.119 701.96 1024.119 Q 701.96 1024.119 464.51 1024.119 Q 323.058 1024.119 323.058 1024.119 C 275.729 1023.978 265.36 1023.872 254.992 1023.589 C 244.623 1023.307 209.608 1021.666 187.264 1017.697 C 164.92 1013.727 143.486 1007.094 122.892 996.72 C 102.297 986.346 84.111 973.22 68.049 957.342 C 51.987 941.463 38.531 923.15 28.216 903.143 C 17.9 883.137 11.083 861.895 6.996 839.471 C 2.909 817.048 1.66 794.853 1.053 772.535 C 0.446 750.218 0.643 752.035 0.589 741.784 C 0.536 731.534 0.5 717.42 0.5 705.247 Q 0.5 705.247 0.5 565.411 L 0.5 458.831 Q 0.5 318.996 0.5 318.996 C 0.5 306.822 0.5 294.631 0.589 282.476 C 0.678 270.32 0.768 261.957 1.053 251.707 C 1.339 241.457 2.981 206.842 6.996 184.753 C 11.012 162.665 17.722 141.476 28.216 121.099 C 38.709 100.722 51.987 82.762 68.049 66.901 C 84.111 51.04 102.636 37.702 122.892 27.523 C 143.147 17.343 164.581 10.568 187.264 6.546 C 209.947 2.523 232.398 1.253 254.992 0.653 C 277.585 0.053 310.744 0.124 323.058 0.124 Q 323.058 0.124 464.51 0.124 L 691.859 0.124 L 560.49 0.177 Q 701.96 0.124 701.96 0.124 C 749.271 0.265 759.64 0.371 770.026 0.653 C 780.413 0.935 815.41 2.576 837.754 6.546 C 860.098 10.515 881.531 17.149 902.126 27.523 C 922.721 37.897 940.907 51.005 956.969 66.901 C 973.031 82.797 986.487 101.075 996.784 121.099 C 1007.082 141.123 1013.935 162.33 1018.004 184.753 C 1022.073 207.177 1023.358 229.372 1023.965 251.707 C 1024.571 274.043 1024.375 272.208 1024.429 282.476 C 1024.482 292.744 1024.5 306.822 1024.5 318.996 Q 1024.5 318.996 1024.5 458.831 L 1024.5 565.411 Q 1024.5 705.247 1024.5 705.247 Z " fill-rule="evenodd" fill="none" vector-effect="non-scaling-stroke" stroke-width="1" stroke="rgb(0,0,0)" stroke-linejoin="miter" stroke-linecap="square" stroke-miterlimit="3"/><path d=" M 330.292 512.121 C 330.292 411.558 411.937 329.913 512.5 329.913 C 613.063 329.913 694.708 411.558 694.708 512.121 C 694.708 612.684 613.063 694.329 512.5 694.329 C 411.937 694.329 330.292 612.684 330.292 512.121 Z " fill="none" vector-effect="non-scaling-stroke" stroke-width="1" stroke="rgb(0,0,0)" stroke-linejoin="miter" stroke-linecap="square" stroke-miterlimit="3"/><path d=" M 330.292 512.121 C 330.292 411.558 411.937 329.913 512.5 329.913 C 613.063 329.913 694.708 411.558 694.708 512.121 C 694.708 612.684 613.063 694.329 512.5 694.329 C 411.937 694.329 330.292 612.684 330.292 512.121 Z " fill="none" vector-effect="non-scaling-stroke" stroke-width="1" stroke="rgb(0,0,0)" stroke-linejoin="miter" stroke-linecap="square" stroke-miterlimit="3"/><path d=" M 261.286 512.121 C 261.286 373.473 373.851 260.908 512.5 260.908 C 651.149 260.908 763.714 373.473 763.714 512.121 C 763.714 650.77 651.149 763.335 512.5 763.335 C 373.851 763.335 261.286 650.77 261.286 512.121 Z " fill="none" vector-effect="non-scaling-stroke" stroke-width="1" stroke="rgb(0,0,0)" stroke-linejoin="miter" stroke-linecap="square" stroke-miterlimit="3"/><path d=" M 121.756 512.121 C 121.756 296.463 296.842 121.377 512.5 121.377 C 728.158 121.377 903.244 296.463 903.244 512.121 C 903.244 727.779 728.158 902.866 512.5 902.866 C 296.842 902.866 121.756 727.779 121.756 512.121 Z " fill="none" vector-effect="non-scaling-stroke" stroke-width="1" stroke="rgb(0,0,0)" stroke-linejoin="miter" stroke-linecap="square" stroke-miterlimit="3"/><g id="Group"><line x1="0" y1="66.621" x2="1024" y2="66.621" vector-effect="non-scaling-stroke" stroke-width="1" stroke="rgb(0,0,0)" stroke-linejoin="miter" stroke-linecap="square" stroke-miterlimit="3"/><line x1="1" y1="957.621" x2="1025" y2="957.621" vector-effect="non-scaling-stroke" stroke-width="1" stroke="rgb(0,0,0)" stroke-linejoin="miter" stroke-linecap="square" stroke-miterlimit="3"/></g><g id="Group"><line x1="512.491" y1="0.121" x2="512.491" y2="1024.121" vector-effect="non-scaling-stroke" stroke-width="1" stroke="rgb(0,0,0)" stroke-linejoin="miter" stroke-linecap="square" stroke-miterlimit="3"/><line x1="324.049" y1="0.121" x2="324.049" y2="1024.121" vector-effect="non-scaling-stroke" stroke-width="1" stroke="rgb(0,0,0)" stroke-linejoin="miter" stroke-linecap="square" stroke-miterlimit="3"/><line x1="702.951" y1="0.121" x2="702.951" y2="1024.121" vector-effect="non-scaling-stroke" stroke-width="1" stroke="rgb(0,0,0)" stroke-linejoin="miter" stroke-linecap="square" stroke-miterlimit="3"/></g><g id="Group"><line x1="956.5" y1="0.121" x2="956.5" y2="1024.121" vector-effect="non-scaling-stroke" stroke-width="1" stroke="rgb(0,0,0)" stroke-linejoin="miter" stroke-linecap="square" stroke-miterlimit="3"/><line x1="68.5" y1="0.121" x2="68.5" y2="1024.121" vector-effect="non-scaling-stroke" stroke-width="1" stroke="rgb(0,0,0)" stroke-linejoin="miter" stroke-linecap="square" stroke-miterlimit="3"/></g><g id="Group"><line x1="0.5" y1="512.121" x2="1024.5" y2="512.121" vector-effect="non-scaling-stroke" stroke-width="1" stroke="rgb(0,0,0)" stroke-linejoin="miter" stroke-linecap="square" stroke-miterlimit="3"/><line x1="0.5" y1="329.913" x2="1024.5" y2="329.913" vector-effect="non-scaling-stroke" stroke-width="1" stroke="rgb(0,0,0)" stroke-linejoin="miter" stroke-linecap="square" stroke-miterlimit="3"/><line x1="0.5" y1="694.329" x2="1024.5" y2="694.329" vector-effect="non-scaling-stroke" stroke-width="1" stroke="rgb(0,0,0)" stroke-linejoin="miter" stroke-linecap="square" stroke-miterlimit="3"/></g><line x1="0.5" y1="0.121" x2="1024.379" y2="1024" vector-effect="non-scaling-stroke" stroke-width="1" stroke="rgb(0,0,0)" stroke-linejoin="miter" stroke-linecap="square" stroke-miterlimit="3"/><line x1="1024" y1="0.121" x2="0.121" y2="1024" vector-effect="non-scaling-stroke" stroke-width="1" stroke="rgb(0,0,0)" stroke-linejoin="miter" stroke-linecap="square" stroke-miterlimit="3"/></g></g></svg>